<svg width="25" height="24" viewBox="0 0 25 24" fill="none" xmlns="http://www.w3.org/2000/svg">
<path d="M7.6001 18H11.1001H14.6001" stroke="#1A1A1A" stroke-width="1.5" stroke-linecap="round" stroke-linejoin="round"/>
<path d="M7.6001 14H8.1001H8.6001" stroke="#1A1A1A" stroke-width="1.5" stroke-linecap="round" stroke-linejoin="round"/>
<path d="M7.6001 10H9.1001H10.6001" stroke="#1A1A1A" stroke-width="1.5" stroke-linecap="round" stroke-linejoin="round"/>
<path d="M7.6001 2L17.1001 2L21.6001 6.5V19" stroke="#1A1A1A" stroke-width="1.5" stroke-linecap="round" stroke-linejoin="round"/>
<path d="M3.6001 20.5V6.5C3.6001 5.67157 4.27167 5 5.1001 5H14.8516C15.0107 5 15.1633 5.06321 15.2758 5.17574L18.4244 8.32426C18.5369 8.43679 18.6001 8.5894 18.6001 8.74853V20.5C18.6001 21.3284 17.9285 22 17.1001 22H5.1001C4.27167 22 3.6001 21.3284 3.6001 20.5Z" stroke="#1A1A1A" stroke-width="1.5" stroke-linecap="round" stroke-linejoin="round"/>
<path d="M14.6001 8.4V5.35355C14.6001 5.15829 14.7584 5 14.9537 5C15.0474 5 15.1373 5.03725 15.2037 5.10355L18.4965 8.39645C18.5628 8.46275 18.6001 8.55268 18.6001 8.64645C18.6001 8.84171 18.4418 9 18.2465 9H15.2001C14.8687 9 14.6001 8.73137 14.6001 8.4Z" fill="#1A1A1A" stroke="#1A1A1A" stroke-width="1.5" stroke-linecap="round" stroke-linejoin="round"/>
</svg>
