<svg width="16" height="16" viewBox="0 0 16 16" fill="none" xmlns="http://www.w3.org/2000/svg">
<path d="M8 8.75001C8.41422 8.75001 8.75001 8.41422 8.75001 8C8.75001 7.58579 8.41422 7.25 8 7.25C7.58579 7.25 7.25 7.58579 7.25 8C7.25 8.41422 7.58579 8.75001 8 8.75001Z" stroke="#757575" stroke-width="1.5" stroke-linecap="round" stroke-linejoin="round"/>
<path d="M8 3.50001C8.41422 3.50001 8.75001 3.16422 8.75001 2.75C8.75001 2.33579 8.41422 2 8 2C7.58579 2 7.25 2.33579 7.25 2.75C7.25 3.16422 7.58579 3.50001 8 3.50001Z" stroke="#757575" stroke-width="1.5" stroke-linecap="round" stroke-linejoin="round"/>
<path d="M8 14C8.41422 14 8.75001 13.6642 8.75001 13.25C8.75001 12.8358 8.41422 12.5 8 12.5C7.58579 12.5 7.25 12.8358 7.25 13.25C7.25 13.6642 7.58579 14 8 14Z" stroke="#757575" stroke-width="1.5" stroke-linecap="round" stroke-linejoin="round"/>
</svg>
