<svg width="25" height="24" viewBox="0 0 25 24" fill="none" xmlns="http://www.w3.org/2000/svg">
<path d="M7.5 18H11H14.5" stroke="#757575" stroke-width="1.5" stroke-linecap="round" stroke-linejoin="round"/>
<path d="M7.5 14H8H8.5" stroke="#757575" stroke-width="1.5" stroke-linecap="round" stroke-linejoin="round"/>
<path d="M7.5 10H9H10.5" stroke="#757575" stroke-width="1.5" stroke-linecap="round" stroke-linejoin="round"/>
<path d="M7.5 2L17 2L21.5 6.5V19" stroke="#757575" stroke-width="1.5" stroke-linecap="round" stroke-linejoin="round"/>
<path d="M3.5 20.5V6.5C3.5 5.67157 4.17157 5 5 5H14.7515C14.9106 5 15.0632 5.06321 15.1757 5.17574L18.3243 8.32426C18.4368 8.43679 18.5 8.5894 18.5 8.74853V20.5C18.5 21.3284 17.8284 22 17 22H5C4.17157 22 3.5 21.3284 3.5 20.5Z" stroke="#757575" stroke-width="1.5" stroke-linecap="round" stroke-linejoin="round"/>
<path d="M14.5 8.4V5.35355C14.5 5.15829 14.6583 5 14.8536 5C14.9473 5 15.0372 5.03725 15.1036 5.10355L18.3964 8.39645C18.4628 8.46275 18.5 8.55268 18.5 8.64645C18.5 8.84171 18.3417 9 18.1464 9H15.1C14.7686 9 14.5 8.73137 14.5 8.4Z" fill="#757575" stroke="#757575" stroke-width="1.5" stroke-linecap="round" stroke-linejoin="round"/>
</svg>
