<svg width="25" height="24" viewBox="0 0 25 24" fill="none" xmlns="http://www.w3.org/2000/svg">
<path d="M2.5 20V19C2.5 15.134 5.63401 12 9.5 12V12" stroke="#0B5D7A" stroke-width="1.5" stroke-linecap="round" stroke-linejoin="round"/>
<path d="M16.3038 12.3135C16.9456 11.6088 18.0544 11.6088 18.6962 12.3135V12.3135C19.0206 12.6697 19.4868 12.8628 19.968 12.8403V12.8403C20.9201 12.7958 21.7042 13.5799 21.6597 14.532V14.532C21.6372 15.0132 21.8303 15.4794 22.1865 15.8038V15.8038C22.8912 16.4456 22.8912 17.5544 22.1865 18.1962V18.1962C21.8303 18.5206 21.6372 18.9868 21.6597 19.468V19.468C21.7042 20.4201 20.9201 21.2042 19.968 21.1597V21.1597C19.4868 21.1372 19.0206 21.3303 18.6962 21.6865V21.6865C18.0544 22.3912 16.9456 22.3912 16.3038 21.6865V21.6865C15.9794 21.3303 15.5132 21.1372 15.032 21.1597V21.1597C14.0799 21.2042 13.2958 20.4201 13.3403 19.468V19.468C13.3628 18.9868 13.1697 18.5206 12.8135 18.1962V18.1962C12.1088 17.5544 12.1088 16.4456 12.8135 15.8038V15.8038C13.1697 15.4794 13.3628 15.0132 13.3403 14.532V14.532C13.2958 13.5799 14.0799 12.7958 15.032 12.8403V12.8403C15.5132 12.8628 15.9794 12.6697 16.3038 12.3135V12.3135Z" stroke="#0B5D7A" stroke-width="1.5"/>
<path d="M15.8638 17L16.9547 18.0909L19.1365 15.9091" stroke="#0B5D7A" stroke-width="1.5" stroke-linecap="round" stroke-linejoin="round"/>
<path d="M9.5 12C11.7091 12 13.5 10.2091 13.5 8C13.5 5.79086 11.7091 4 9.5 4C7.29086 4 5.5 5.79086 5.5 8C5.5 10.2091 7.29086 12 9.5 12Z" stroke="#0B5D7A" stroke-width="1.5" stroke-linecap="round" stroke-linejoin="round"/>
</svg>
