<svg width="25" height="24" viewBox="0 0 25 24" fill="none" xmlns="http://www.w3.org/2000/svg">
<path d="M2.6665 20V19C2.6665 15.134 5.80051 12 9.6665 12V12" stroke="#1A1A1A" stroke-width="1.5" stroke-linecap="round" stroke-linejoin="round"/>
<path d="M16.4703 12.3135C17.1121 11.6088 18.2209 11.6088 18.8627 12.3135V12.3135C19.1871 12.6697 19.6533 12.8628 20.1345 12.8403V12.8403C21.0866 12.7958 21.8707 13.5799 21.8262 14.532V14.532C21.8037 15.0132 21.9968 15.4794 22.353 15.8038V15.8038C23.0577 16.4456 23.0577 17.5544 22.353 18.1962V18.1962C21.9968 18.5206 21.8037 18.9868 21.8262 19.468V19.468C21.8707 20.4201 21.0866 21.2042 20.1345 21.1597V21.1597C19.6533 21.1372 19.1871 21.3303 18.8627 21.6865V21.6865C18.2209 22.3912 17.1121 22.3912 16.4703 21.6865V21.6865C16.1459 21.3303 15.6797 21.1372 15.1985 21.1597V21.1597C14.2464 21.2042 13.4623 20.4201 13.5068 19.468V19.468C13.5293 18.9868 13.3362 18.5206 12.98 18.1962V18.1962C12.2753 17.5544 12.2753 16.4456 12.98 15.8038V15.8038C13.3362 15.4794 13.5293 15.0132 13.5068 14.532V14.532C13.4623 13.5799 14.2464 12.7958 15.1985 12.8403V12.8403C15.6797 12.8628 16.1459 12.6697 16.4703 12.3135V12.3135Z" stroke="#1A1A1A" stroke-width="1.5"/>
<path d="M16.0303 17L17.1212 18.0909L19.303 15.9091" stroke="#1A1A1A" stroke-width="1.5" stroke-linecap="round" stroke-linejoin="round"/>
<path d="M9.6665 12C11.8756 12 13.6665 10.2091 13.6665 8C13.6665 5.79086 11.8756 4 9.6665 4C7.45736 4 5.6665 5.79086 5.6665 8C5.6665 10.2091 7.45736 12 9.6665 12Z" stroke="#1A1A1A" stroke-width="1.5" stroke-linecap="round" stroke-linejoin="round"/>
</svg>
